<?xml version="1.0" encoding="UTF-8" standalone="no"?>
<svg
   xmlns:dc="http://purl.org/dc/elements/1.1/"
   xmlns:cc="http://creativecommons.org/ns#"
   xmlns:rdf="http://www.w3.org/1999/02/22-rdf-syntax-ns#"
   xmlns:svg="http://www.w3.org/2000/svg"
   xmlns="http://www.w3.org/2000/svg"
   height="24"
   width="24"
   id="svg2"
   xml:space="preserve"
   viewBox="0 0 24 24"
   y="0px"
   x="0px"
   version="1.1"><metadata
     id="metadata52"><rdf:RDF><cc:Work
         rdf:about=""><dc:format>image/svg+xml</dc:format><dc:type
           rdf:resource="http://purl.org/dc/dcmitype/StillImage" /><dc:title></dc:title></cc:Work></rdf:RDF></metadata><defs
     id="defs50" /><g
     id="g4"><path
       id="path6"
       d="m 12.5,1.5 0,3.051 c 0.978,0.199 1.75,0.971 1.949,1.949 l 2.051,0 0,-5 -4,0 z" /><path
       id="path8"
       d="m 7.5,6.5 2.051,0 C 9.75,5.522 10.522,4.75 11.5,4.551 l 0,-3.051 -4,0 0,5 z" /><path
       id="path10"
       d="m 11.5,12.5 -4,0 0,2.051 c 0.978,0.199 1.75,0.971 1.949,1.949 l 2.051,0 0,-4 z" /><path
       id="path12"
       d="m 11.5,11.5 0,-2.051 C 10.522,9.25 9.75,8.478 9.551,7.5 l -2.051,0 0,4 4,0 z" /><circle
       id="circle14"
       r="1.5"
       cy="7"
       cx="12" /><path
       id="path16"
       d="m 6.5,14.551 0,-2.051 -5,0 0,4 3.051,0 C 4.75,15.522 5.522,14.75 6.5,14.551 Z" /><path
       id="path18"
       d="m 17.5,9.551 c 0.978,0.199 1.75,0.971 1.949,1.949 l 3.051,0 0,-4 -5,0 0,2.051 z" /><rect
       id="rect20"
       height="4"
       width="5"
       y="7.5"
       x="1.5" /><path
       id="path22"
       d="m 12.5,9.449 0,2.051 2.051,0 C 14.75,10.522 15.522,9.75 16.5,9.551 l 0,-2.051 -2.051,0 C 14.25,8.478 13.478,9.25 12.5,9.449 Z" /><circle
       id="circle24"
       r="1.5"
       cy="12"
       cx="17" /><path
       id="path26"
       d="M 6.5,19.449 C 5.522,19.25 4.75,18.478 4.551,17.5 l -3.051,0 0,2.5 c 0,1.378 1.122,2.5 2.5,2.5 l 2.5,0 0,-3.051 z" /><path
       id="path28"
       d="m 17.5,6.5 5,0 0,-2.5 C 22.5,2.622 21.378,1.5 20,1.5 l -2.5,0 0,5 z" /><circle
       id="circle30"
       r="1.5"
       cy="17"
       cx="7" /><path
       id="path32"
       d="m 17.5,17.5 0,5 2.5,0 c 1.378,0 2.5,-1.122 2.5,-2.5 l 0,-2.5 -5,0 z" /><path
       id="path34"
       d="m 6.5,6.5 0,-5 -2.5,0 C 2.622,1.5 1.5,2.622 1.5,4 l 0,2.5 5,0 z" /><rect
       id="rect36"
       height="5"
       width="4"
       y="17.5"
       x="12.5" /><path
       id="path38"
       d="m 22.5,12.5 -3.051,0 c -0.199,0.978 -0.971,1.75 -1.949,1.949 l 0,2.051 5,0 0,-4 z" /><path
       id="path40"
       d="m 11.5,17.5 -2.051,0 C 9.25,18.478 8.478,19.25 7.5,19.449 l 0,3.051 4,0 0,-5 z" /><path
       id="path42"
       d="m 14.551,12.5 -2.051,0 0,4 4,0 0,-2.051 C 15.522,14.25 14.75,13.478 14.551,12.5 Z" /></g></svg>